# xmcd
#
# Track frame offsets: 
#        150
#        14668
#        29051
#        42143
#        56101
#        69800
#        82156
#        95120
#        109564
#        122420
#        135191
#        148196
#        161946
#        176314
#        193816
#        207820
#        221704
#        235719
#        248639
#        261692
#        274369
#        287242
#        296670
#        309905
#        323407
#        336171
#
# Disc length: 4647 seconds
#
# Revision: 0
# Processed by: cddbd v1.5.2PL0 Copyright (c) Steve Scherf et al.
# Submitted via: ExactAudioCopy v0.99pb4
#
DISCID=9112251a
DTITLE=Various Artist - The Definite Charley Patton (Vol. 2): Moon Going Down
DYEAR=2009
DGENRE=Blues
TTITLE0=Charley Patton - Hammer Blues
TTITLE1=Bessie Smith - Mountain Top Blues
TTITLE2=Charley Patton - You're Gonna Need Somebody When You Die
TTITLE3=Blind Willie Johnson - You're Gonna Need Somebody on Your Bond
TTITLE4=Charley Patton - High Water Everywhere Pt. 1
TTITLE5=Mattie Delaney - Tellahatchie River Blues
TTITLE6=Charley Patton - Jesus Is a Dying-Bed Maker
TTITLE7=Blind Willie Johnson - Jesus Make Up My Dying Bed
TTITLE8=Charley Patton - Running Wild Blues
TTITLE9=Cow Cow Davenport - Running Wild
TTITLE10=Charley Patton - Some Summer Day
TTITLE11=Mississippi Sheiks - Sitting on Top of the World
TTITLE12=Charley Patton - Moon Going Down
TTITLE13=Howlin' Wolf - Crying at Daybreak
TTITLE14=Charley Patton - Bird Nest Bound
TTITLE15=Ardell Bragg - Bird Nest Blues
TTITLE16=Charley Patton - Jersey Bull Blues
TTITLE17=Big Bill Broonzy - Bull Cow Blues
TTITLE18=Charley Patton - 34 Blues
TTITLE19=Howlin' Wolf - Forty Four
TTITLE20=Charley Patton - Oh Death
TTITLE21=Pace Jubilee Singers - Oh Death
TTITLE22=Charley Patton - Poor Me
TTITLE23=Hound Head Henry - Cryin' Blues
TTITLE24=Charley Patton and Bertha Lee - Yellow Bee
TTITLE25=Memphis Minnie - Bumble Bee
EXTD=
EXTT0=
EXTT1=
EXTT2=
EXTT3=
EXTT4=
EXTT5=
EXTT6=
EXTT7=
EXTT8=
EXTT9=
EXTT10=
EXTT11=
EXTT12=
EXTT13=
EXTT14=
EXTT15=
EXTT16=
EXTT17=
EXTT18=
EXTT19=
EXTT20=
EXTT21=
EXTT22=
EXTT23=
EXTT24=
EXTT25=
PLAYORDER=
